<?xml version="1.0" encoding="UTF-8"?><svg id="Layer_2" xmlns="http://www.w3.org/2000/svg" xmlns:xlink="http://www.w3.org/1999/xlink" viewBox="0 0 500 333.83"><defs><style>.cls-1{fill:url(#linear-gradient);}.cls-2{fill:#00b1a3;}.cls-3{fill:url(#linear-gradient-2);}</style><linearGradient id="linear-gradient" x1="216.97" y1="333.83" x2="216.97" y2="0" gradientUnits="userSpaceOnUse"><stop offset="0" stop-color="#80468f"/><stop offset=".3" stop-color="#a34784"/><stop offset=".96" stop-color="#fc4c68"/><stop offset=".98" stop-color="#ff4d68"/></linearGradient><linearGradient id="linear-gradient-2" x1="218.58" y1="154.76" x2="218.58" y2="120.38" xlink:href="#linear-gradient"/></defs><g id="Layer_5"><g><path class="cls-2" d="M82.63,271.43v-.09c7.02,0,12.57,1.73,16.55,5.11,3.99,3.38,5.98,8.15,5.98,14.21s-1.99,10.83-5.98,14.3c-3.99,3.46-9.53,5.2-16.55,5.2h-11.52v21.93h-7.11v-60.66h18.63Zm-.26,32.06h.09c5.03,0,8.84-1.13,11.44-3.38,2.6-2.25,3.9-5.37,3.9-9.36s-1.39-7.19-4.16-9.36c-2.77-2.17-6.5-3.29-11.27-3.29h-11.35v25.39h11.35Z"/><path class="cls-2" d="M154.03,316.23h-30.42l-6.76,15.86h-7.63l26.34-60.66h6.5l26.34,60.66h-7.63l-6.76-15.86Zm-2.69-6.33l-9.62-22.53c-.35-.78-.69-1.56-1.04-2.43-.35-.87-.61-1.65-.87-2.43-.26-.78-.52-1.39-.69-1.82l-.26-.69h-.09l-.26,.69c-.17,.43-.43,1.04-.69,1.82-.26,.78-.52,1.56-.87,2.43-.35,.86-.69,1.65-1.04,2.43l-9.62,22.53h25.04Z"/><path class="cls-2" d="M213.38,332.09l-13.78-22.62c-.43,.09-.95,.09-1.47,.09h-12.91v22.53h-7.11v-60.57h18.46c7.19,0,12.74,1.73,16.73,5.2,3.99,3.47,5.98,8.15,5.98,14.04,0,4.33-1.13,7.97-3.29,10.92-2.17,2.95-5.29,5.11-9.36,6.41l14.73,24h-7.97Zm-16.2-28.94l.09,.09c4.94,0,8.67-1.22,11.09-3.55,2.43-2.34,3.64-5.37,3.64-9.01,0-3.9-1.3-6.93-3.9-9.18-2.6-2.25-6.24-3.38-10.92-3.38h-12.04v25.04h12.04Z"/><path class="cls-2" d="M274.73,271.43v6.67h-20.37v53.99h-7.02v-53.99h-20.28v-6.67h47.66Z"/><path class="cls-2" d="M334.42,271.43v60.75h-6.67l-26.95-36.22c-1.3-1.82-2.51-3.47-3.64-5.03-1.13-1.56-2.08-2.95-2.86-4.07-.78-1.13-1.39-1.99-1.82-2.69l-.69-1.04h-.09v48.96h-7.11v-60.66h6.67l26.95,36.22c1.13,1.56,2.25,3.03,3.29,4.51,1.04,1.47,1.99,2.77,2.86,3.98,.87,1.22,1.56,2.17,2.08,2.86l.78,1.04h.09v-48.61h7.11Z"/><path class="cls-2" d="M391.52,325.42v6.67h-40.99v-60.66h40.47v6.67h-33.36v18.72h26.78v6.33h-26.78v22.27h33.88Z"/><path class="cls-2" d="M440.39,332.09l-13.78-22.62c-.43,.09-.95,.09-1.47,.09h-12.91v22.53h-7.11v-60.57h18.46c7.19,0,12.74,1.73,16.73,5.2,3.99,3.47,5.98,8.15,5.98,14.04,0,4.33-1.13,7.97-3.29,10.92-2.17,2.95-5.29,5.11-9.36,6.41l14.73,24h-7.97Zm-16.2-28.94l.09,.09c4.94,0,8.67-1.22,11.09-3.55,2.43-2.34,3.64-5.37,3.64-9.01,0-3.9-1.3-6.93-3.9-9.18-2.6-2.25-6.24-3.38-10.92-3.38h-12.04v25.04h12.04Z"/><path class="cls-2" d="M492.81,288.24l-.87,.35c-.35-1.82-.95-3.47-1.82-4.94-.87-1.47-1.99-2.69-3.38-3.73-1.39-1.04-2.86-1.82-4.51-2.34-1.65-.52-3.47-.78-5.37-.78-3.99,0-7.28,.87-9.79,2.6-2.51,1.73-3.81,4.16-3.81,7.19,0,1.65,.52,3.03,1.47,4.16,.95,1.13,2.25,2.08,3.81,2.86,1.56,.78,3.29,1.47,5.29,2.08,1.99,.61,3.99,1.21,5.98,1.82,2.17,.61,4.42,1.39,6.76,2.25,2.34,.87,4.51,1.99,6.5,3.38,1.99,1.39,3.64,3.03,4.94,5.03,1.3,1.99,1.99,4.51,1.99,7.45,0,2.51-.52,4.85-1.56,7.02s-2.51,3.99-4.42,5.55-4.25,2.77-6.93,3.64c-2.69,.78-5.72,1.21-9.1,1.21s-6.15-.43-8.84-1.21c-2.69-.87-4.94-2.08-6.85-3.64-1.91-1.56-3.47-3.47-4.77-5.63-1.3-2.17-2.17-4.51-2.6-7.02l6.85-1.82c.26,1.73,.78,3.38,1.56,5.03,.78,1.65,1.91,3.03,3.29,4.25,1.39,1.21,3.03,2.17,4.94,2.86,1.91,.69,4.16,1.04,6.67,1.04,4.51,0,8.06-1.04,10.66-3.12,2.6-2.08,3.9-4.76,3.9-7.97,0-2.17-.61-3.98-1.82-5.37s-2.69-2.6-4.51-3.55c-1.82-.95-3.9-1.73-6.15-2.34-2.25-.61-4.42-1.3-6.59-1.99-1.73-.52-3.55-1.13-5.55-1.91-1.99-.78-3.81-1.73-5.55-2.86-1.73-1.13-3.12-2.6-4.25-4.42-1.13-1.82-1.65-3.99-1.65-6.59,0-2.34,.52-4.51,1.56-6.5,1.04-1.99,2.51-3.73,4.33-5.2,1.82-1.47,4.07-2.6,6.67-3.47,2.6-.87,5.46-1.3,8.49-1.3,2.77,0,5.37,.35,7.8,1.13,2.43,.78,4.59,1.91,6.5,3.29,1.91,1.39,3.47,3.12,4.77,5.11,1.3,1.99,2.17,4.16,2.69,6.59l-6.76,1.82Z"/></g></g><g id="Layer_6"><g><path class="cls-1" d="M381.88,179.91c-16.15,16.15-34.94,24.23-56.37,24.23s-40.06-7.96-55.89-23.87c-6.64-6.67-18.87-20.19-18.87-20.19l-8.93-9.38c-5.7,6.48-13.44,9.71-23.21,9.71-7.68,0-13.82-1.98-18.4-5.93-1.44-1.24-2.63-2.63-3.61-4.14-3.92,11.21-10.33,21.27-19.22,30.16-15.91,15.91-34.58,23.87-56.01,23.87s-39.98-7.76-55.65-23.27c-11.99-11.83-19.43-25.51-22.31-41.02v-36.94c2.88-15.51,9.99-28.94,21.35-40.3,16.31-16.31,35.18-24.47,56.61-24.47s40.1,8,56.01,23.99c15.72,15.8,23.66,35.28,23.85,58.42,2.12-1.92,4.59-3.55,7.51-4.81-4.14-4.8-6.21-9.86-6.21-15.18,0-6.13,2.14-11.06,6.43-14.8,4.28-3.73,9.45-5.6,15.51-5.6,4.95,0,9.38,1.29,13.3,3.88,3.91,2.59,6.69,6.17,8.31,10.75l-4.87,2.88c-1.18-3.62-3.27-6.5-6.26-8.64-2.99-2.14-6.45-3.21-10.36-3.21-4.65,0-8.5,1.37-11.52,4.11-3.03,2.74-4.54,6.22-4.54,10.43,0,2.89,.7,5.49,2.09,7.83,1.4,2.33,3.49,4.94,6.29,7.82l24.28,25.39c2.38-4.37,4.3-9.96,4.69-15.46,0,0,0-3.15,0-4.79,0-23.51,7.92-43.22,23.75-59.13,15.83-15.91,34.46-23.87,55.89-23.87s39.9,7.68,55.41,23.03c2.08,2.24,6,6.96,11.75,14.15l41.26-15.35c-8.16-11.03-14.96-19.27-20.39-24.71C389.87,11.83,360.53,0,325.51,0s-64.09,11.99-88.15,35.98c-5.21,5.19-9.82,10.61-13.91,16.22-4.05-5.58-8.63-10.95-13.8-16.1C185.66,12.19,156.24,.24,121.38,.24S60.53,14.55,43.42,43.18V17.99H0V333.83H43.42V199.57c17.11,28.94,43.09,43.42,77.96,43.42s64.29-12.03,88.27-36.1c5.18-5.2,9.77-10.62,13.83-16.22,4.07,5.61,8.68,11.03,13.87,16.22,24.07,24.07,53.45,36.1,88.15,36.1s64.68-12.23,88.99-36.7c4.8-4.96,11.27-12.95,19.43-23.99l-41.26-15.11c-5.76,7.04-9.36,11.27-10.79,12.71Z"/><path class="cls-3" d="M202.68,127.85c-.82,1.2-1.43,2.45-1.95,3.72-1.28,3.59-1.45,5.58-1.28,8.33,.3,4.4,1.92,7.95,5.03,10.55,3.44,2.87,8.07,4.31,13.91,4.31,8.04,0,14.51-2.77,19.38-8.32l-24.82-26.06c-4.61,1.69-8.04,4.18-10.27,7.46Z"/></g></g></svg>