<?xml version="1.0" encoding="UTF-8"?><svg id="Layer_2" xmlns="http://www.w3.org/2000/svg" viewBox="0 0 162.74 108.66"><defs><style>.cls-1{fill:#eee;}</style></defs><g id="Layer_6"><g><path class="cls-1" d="M26.89,88.34v-.03c2.28,0,4.09,.56,5.39,1.66s1.95,2.65,1.95,4.63-.65,3.53-1.95,4.65c-1.3,1.13-3.1,1.69-5.39,1.69h-3.75v7.14h-2.31v-19.74h6.06Zm-.08,10.44h.03c1.64,0,2.88-.37,3.72-1.1,.85-.73,1.27-1.75,1.27-3.05s-.45-2.34-1.35-3.05-2.12-1.07-3.67-1.07h-3.69v8.26h3.69Z"/><path class="cls-1" d="M50.13,102.93h-9.9l-2.2,5.16h-2.48l8.57-19.74h2.12l8.57,19.74h-2.48l-2.2-5.16Zm-.87-2.06l-3.13-7.33c-.11-.25-.23-.51-.34-.79-.11-.28-.2-.54-.28-.79s-.17-.45-.23-.59l-.08-.23h-.03l-.08,.23c-.06,.14-.14,.34-.23,.59-.08,.25-.17,.51-.28,.79-.11,.28-.23,.54-.34,.79l-3.13,7.33h8.15Z"/><path class="cls-1" d="M69.45,108.09l-4.48-7.36c-.14,.03-.31,.03-.48,.03h-4.2v7.33h-2.31v-19.72h6.01c2.34,0,4.15,.56,5.44,1.69,1.3,1.13,1.95,2.65,1.95,4.57,0,1.41-.37,2.59-1.07,3.55s-1.72,1.66-3.05,2.09l4.79,7.81h-2.6Zm-5.27-9.42l.03,.03c1.61,0,2.82-.4,3.61-1.16,.79-.76,1.18-1.75,1.18-2.93,0-1.27-.42-2.26-1.27-2.99-.85-.73-2.03-1.1-3.55-1.1h-3.92v8.15h3.92Z"/><path class="cls-1" d="M89.42,88.34v2.17h-6.63v17.57h-2.28v-17.57h-6.6v-2.17h15.51Z"/><path class="cls-1" d="M108.85,88.34v19.77h-2.17l-8.77-11.79c-.42-.59-.82-1.13-1.18-1.64-.37-.51-.68-.96-.93-1.33s-.45-.65-.59-.87l-.23-.34h-.03v15.94h-2.31v-19.74h2.17l8.77,11.79c.37,.51,.73,.99,1.07,1.47,.34,.48,.65,.9,.93,1.3,.28,.4,.51,.71,.68,.93l.25,.34h.03v-15.82h2.31Z"/><path class="cls-1" d="M127.43,105.92v2.17h-13.34v-19.74h13.17v2.17h-10.86v6.09h8.72v2.06h-8.72v7.25h11.03Z"/><path class="cls-1" d="M143.34,108.09l-4.48-7.36c-.14,.03-.31,.03-.48,.03h-4.2v7.33h-2.31v-19.72h6.01c2.34,0,4.15,.56,5.44,1.69,1.3,1.13,1.95,2.65,1.95,4.57,0,1.41-.37,2.59-1.07,3.55s-1.72,1.66-3.05,2.09l4.79,7.81h-2.6Zm-5.27-9.42l.03,.03c1.61,0,2.82-.4,3.61-1.16,.79-.76,1.18-1.75,1.18-2.93,0-1.27-.42-2.26-1.27-2.99-.85-.73-2.03-1.1-3.55-1.1h-3.92v8.15h3.92Z"/><path class="cls-1" d="M160.4,93.82l-.28,.11c-.11-.59-.31-1.13-.59-1.61-.28-.48-.65-.87-1.1-1.21-.45-.34-.93-.59-1.47-.76s-1.13-.25-1.75-.25c-1.3,0-2.37,.28-3.19,.85-.82,.56-1.24,1.35-1.24,2.34,0,.54,.17,.99,.48,1.35,.31,.37,.73,.68,1.24,.93,.51,.25,1.07,.48,1.72,.68,.65,.2,1.3,.39,1.95,.59,.71,.2,1.44,.45,2.2,.73s1.47,.65,2.12,1.1c.65,.45,1.18,.99,1.61,1.64s.65,1.47,.65,2.43c0,.82-.17,1.58-.51,2.28s-.82,1.3-1.44,1.81-1.38,.9-2.26,1.19c-.87,.25-1.86,.39-2.96,.39s-2-.14-2.88-.39c-.87-.28-1.61-.68-2.23-1.19-.62-.51-1.13-1.13-1.55-1.83s-.71-1.47-.85-2.28l2.23-.59c.08,.56,.25,1.1,.51,1.64,.25,.54,.62,.99,1.07,1.38,.45,.39,.99,.71,1.61,.93,.62,.23,1.35,.34,2.17,.34,1.47,0,2.62-.34,3.47-1.02,.85-.68,1.27-1.55,1.27-2.59,0-.71-.2-1.3-.59-1.75s-.87-.85-1.47-1.16c-.59-.31-1.27-.56-2-.76-.73-.2-1.44-.42-2.14-.65-.56-.17-1.16-.37-1.81-.62-.65-.25-1.24-.56-1.81-.93-.56-.37-1.02-.85-1.38-1.44-.37-.59-.54-1.3-.54-2.14,0-.76,.17-1.47,.51-2.12,.34-.65,.82-1.21,1.41-1.69,.59-.48,1.33-.85,2.17-1.13,.85-.28,1.78-.42,2.76-.42,.9,0,1.75,.11,2.54,.37,.79,.25,1.5,.62,2.12,1.07,.62,.45,1.13,1.02,1.55,1.66,.42,.65,.71,1.35,.87,2.14l-2.2,.59Z"/></g><g><path class="cls-1" d="M124.29,58.56c-5.26,5.26-11.37,7.89-18.35,7.89s-13.04-2.59-18.19-7.77c-2.16-2.17-6.14-6.57-6.14-6.57l-2.91-3.05c-1.86,2.11-4.37,3.16-7.55,3.16-2.5,0-4.5-.64-5.99-1.93-.47-.4-.85-.86-1.18-1.35-1.28,3.65-3.36,6.92-6.25,9.82-5.18,5.18-11.26,7.77-18.23,7.77s-13.01-2.52-18.11-7.57c-3.9-3.85-6.32-8.3-7.26-13.35v-12.02c.94-5.05,3.25-9.42,6.95-13.12,5.31-5.31,11.45-7.96,18.43-7.96s13.05,2.6,18.23,7.81c5.12,5.14,7.7,11.48,7.76,19.01,.69-.62,1.49-1.16,2.45-1.57-1.35-1.56-2.02-3.21-2.02-4.94,0-2,.7-3.6,2.09-4.82,1.39-1.21,3.08-1.82,5.05-1.82,1.61,0,3.05,.42,4.33,1.26,1.27,.84,2.18,2.01,2.7,3.5l-1.59,.94c-.39-1.18-1.06-2.12-2.04-2.81-.97-.7-2.1-1.05-3.37-1.05-1.51,0-2.77,.45-3.75,1.34-.99,.89-1.48,2.02-1.48,3.4,0,.94,.23,1.79,.68,2.55,.45,.76,1.14,1.61,2.05,2.55l7.9,8.26c.78-1.42,1.4-3.24,1.53-5.03,0,0,0-1.03,0-1.56,0-7.65,2.58-14.07,7.73-19.25,5.15-5.18,11.22-7.77,18.19-7.77s12.99,2.5,18.03,7.5c.68,.73,1.95,2.26,3.83,4.61l13.43-5c-2.65-3.59-4.87-6.27-6.64-8.04C126.9,3.85,117.34,0,105.95,0s-20.86,3.9-28.69,11.71c-1.7,1.69-3.2,3.45-4.53,5.28-1.32-1.82-2.81-3.57-4.49-5.24C60.43,3.97,50.85,.08,39.51,.08S19.7,4.74,14.13,14.05V5.86H0V108.66H14.13v-43.7c5.57,9.42,14.03,14.13,25.37,14.13s20.92-3.92,28.73-11.75c1.69-1.69,3.18-3.46,4.5-5.28,1.33,1.83,2.82,3.59,4.52,5.28,7.83,7.83,17.4,11.75,28.69,11.75s21.05-3.98,28.97-11.95c1.56-1.61,3.67-4.22,6.32-7.81l-13.43-4.92c-1.87,2.29-3.04,3.67-3.51,4.14Z"/><path class="cls-1" d="M65.97,41.61c-.27,.39-.47,.8-.63,1.21-.42,1.17-.47,1.82-.42,2.71,.1,1.43,.63,2.59,1.64,3.43,1.12,.94,2.63,1.4,4.53,1.4,2.62,0,4.72-.9,6.31-2.71l-8.08-8.48c-1.5,.55-2.62,1.36-3.34,2.43Z"/></g></g></svg>